<svg width="69" height="69" viewBox="0 0 69 69" fill="none" xmlns="http://www.w3.org/2000/svg">
<path d="M46 46L34.5 34.5L23 46" stroke="#FF735C" stroke-width="2" stroke-linecap="round" stroke-linejoin="round"/>
<path d="M34.5 34.5V60.375" stroke="#FF735C" stroke-width="2" stroke-linecap="round" stroke-linejoin="round"/>
<path d="M58.6212 52.871C61.4253 51.3423 63.6405 48.9233 64.9171 45.9958C66.1937 43.0683 66.4591 39.7991 65.6713 36.704C64.8836 33.6089 63.0875 30.8644 60.5667 28.9034C58.0458 26.9425 54.9437 25.8769 51.75 25.8748H48.1275C47.2573 22.5088 45.6353 19.384 43.3836 16.7351C41.1319 14.0863 38.3089 11.9823 35.127 10.5815C31.9451 9.18069 28.4871 8.51943 25.0128 8.64743C21.5386 8.77544 18.1386 9.68938 15.0684 11.3206C11.9982 12.9517 9.33774 15.2577 7.28703 18.0651C5.23632 20.8724 3.84873 24.1082 3.22856 27.529C2.60839 30.9499 2.7718 34.4668 3.70648 37.8154C4.64117 41.164 6.32281 44.2571 8.62499 46.8623" stroke="#FF735C" stroke-width="2" stroke-linecap="round" stroke-linejoin="round"/>
<path d="M46 46L34.5 34.5L23 46" stroke="#FF735C" stroke-width="2" stroke-linecap="round" stroke-linejoin="round"/>
</svg>
